P2
# Generated by ECE496 Verilog testbench
         26          26
255
60 62  0  2  4  6  8 10 12 14 16 18 20 22 24 26 28 30 32 34 36 38 40 42 44 46 
52 54 56 58 60 62  0  2  4  6  8 10 12 14 16 18 20 22 24 26 28 30 32 34 36 38 
44 46 48 50 52 54 56 58 60 62  0  2  4  6  8 10 12 14 16 18 20 22 24 26 28 30 
36 38 40 42 44 46 48 50 52 54 56 58 60 62  0  2  4  6  8 10 12 14 16 18 20 22 
28 30 32 34 36 38 40 42 44 46 48 50 52 54 56 58 60 62  0  2  4  6  8 10 12 14 
20 22 24 26 28 30 32 34 36 38 40 42 44 46 48 50 52 54 56 58 60 62  0  2  4  6 
12 14 16 18 20 22 24 26 28 30 32 34 36 38 40 42 44 46 48 50 52 54 56 58 60 62 
 4  6  8 10 12 14 16 18 20 22 24 26 28 30 32 34 36 38 40 42 44 46 48 50 52 54 
60 62  0  2  4  6  8 10 12 14 16 18 20 22 24 26 28 30 32 34 36 38 40 42 44 46 
52 54 56 58 60 62  0  2  4  6  8 10 12 14 16 18 20 22 24 26 28 30 32 34 36 38 
44 46 48 50 52 54 56 58 60 62  0  2  4  6  8 10 12 14 16 18 20 22 24 26 28 30 
36 38 40 42 44 46 48 50 52 54 56 58 60 62  0  2  4  6  8 10 12 14 16 18 20 22 
28 30 32 34 36 38 40 42 44 46 48 50 52 54 56 58 60 62  0  2  4  6  8 10 12 14 
20 22 24 26 28 30 32 34 36 38 40 42 44 46 48 50 52 54 56 58 60 62  0  2  4  6 
12 14 16 18 20 22 24 26 28 30 32 34 36 38 40 42 44 46 48 50 52 54 56 58 60 62 
 4  6  8 10 12 14 16 18 20 22 24 26 28 30 32 34 36 38 40 42 44 46 48 50 52 54 
60 62  0  2  4  6  8 10 12 14 16 18 20 22 24 26 28 30 32 34 36 38 40 42 44 46 
52 54 56 58 60 62  0  2  4  6  8 10 12 14 16 18 20 22 24 26 28 30 32 34 36 38 
44 46 48 50 52 54 56 58 60 62  0  2  4  6  8 10 12 14 16 18 20 22 24 26 28 30 
36 38 40 42 44 46 48 50 52 54 56 58 60 62  0  2  4  6  8 10 12 14 16 18 20 22 
28 30 32 34 36 38 40 42 44 46 48 50 52 54 56 58 60 62  0  2  4  6  8 10 12 14 
20 22 24 26 28 30 32 34 36 38 40 42 44 46 48 50 52 54 56 58 60 62  0  2  4  6 
12 14 16 18 20 22 24 26 28 30 32 34 36 38 40 42 44 46 48 50 52 54 56 58 60 62 
 4  6  8 10 12 14 16 18 20 22 24 26 28 30 32 34 36 38 40 42 44 46 48 50 52 54 
60 62  0  2  4  6  8 10 12 14 16 18 20 22 24 26 28 30 32 34 36 38 40 42 44 46 
52 54 56 58 60 62  0  2  4  6  8 10 12 14 16 18 20 22 24 26 28 30 32 34 36 38 