P2
# Generated by ECE496 Verilog testbench
         26          26
255
56 60  0  4  8 12 16 20 24 28 32 36 40 44 48 52 56 60  0  4  8 12 16 20 24 28 
40 44 48 52 56 60  0  4  8 12 16 20 24 28 32 36 40 44 48 52 56 60  0  4  8 12 
24 28 32 36 40 44 48 52 56 60  0  4  8 12 16 20 24 28 32 36 40 44 48 52 56 60 
 8 12 16 20 24 28 32 36 40 44 48 52 56 60  0  4  8 12 16 20 24 28 32 36 40 44 
56 60  0  4  8 12 16 20 24 28 32 36 40 44 48 52 56 60  0  4  8 12 16 20 24 28 
40 44 48 52 56 60  0  4  8 12 16 20 24 28 32 36 40 44 48 52 56 60  0  4  8 12 
24 28 32 36 40 44 48 52 56 60  0  4  8 12 16 20 24 28 32 36 40 44 48 52 56 60 
 8 12 16 20 24 28 32 36 40 44 48 52 56 60  0  4  8 12 16 20 24 28 32 36 40 44 
56 60  0  4  8 12 16 20 24 28 32 36 40 44 48 52 56 60  0  4  8 12 16 20 24 28 
40 44 48 52 56 60  0  4  8 12 16 20 24 28 32 36 40 44 48 52 56 60  0  4  8 12 
24 28 32 36 40 44 48 52 56 60  0  4  8 12 16 20 24 28 32 36 40 44 48 52 56 60 
 8 12 16 20 24 28 32 36 40 44 48 52 56 60  0  4  8 12 16 20 24 28 32 36 40 44 
56 60  0  4  8 12 16 20 24 28 32 36 40 44 48 52 56 60  0  4  8 12 16 20 24 28 
40 44 48 52 56 60  0  4  8 12 16 20 24 28 32 36 40 44 48 52 56 60  0  4  8 12 
24 28 32 36 40 44 48 52 56 60  0  4  8 12 16 20 24 28 32 36 40 44 48 52 56 60 
 8 12 16 20 24 28 32 36 40 44 48 52 56 60  0  4  8 12 16 20 24 28 32 36 40 44 
56 60  0  4  8 12 16 20 24 28 32 36 40 44 48 52 56 60  0  4  8 12 16 20 24 28 
40 44 48 52 56 60  0  4  8 12 16 20 24 28 32 36 40 44 48 52 56 60  0  4  8 12 
24 28 32 36 40 44 48 52 56 60  0  4  8 12 16 20 24 28 32 36 40 44 48 52 56 60 
 8 12 16 20 24 28 32 36 40 44 48 52 56 60  0  4  8 12 16 20 24 28 32 36 40 44 
56 60  0  4  8 12 16 20 24 28 32 36 40 44 48 52 56 60  0  4  8 12 16 20 24 28 
40 44 48 52 56 60  0  4  8 12 16 20 24 28 32 36 40 44 48 52 56 60  0  4  8 12 
24 28 32 36 40 44 48 52 56 60  0  4  8 12 16 20 24 28 32 36 40 44 48 52 56 60 
 8 12 16 20 24 28 32 36 40 44 48 52 56 60  0  4  8 12 16 20 24 28 32 36 40 44 
56 60  0  4  8 12 16 20 24 28 32 36 40 44 48 52 56 60  0  4  8 12 16 20 24 28 
40 44 48 52 56 60  0  4  8 12 16 20 24 28 32 36 40 44 48 52 56 60  0  4  8 12 