P2
# Generated by ECE496 Verilog testbench
         26          26
255
26 29 32 35 38 41 44 47 50 53 56 59 62  1  4  7 10 13 16 19 22 25 28 31 34 37 
46 49 52 55 58 61  0  3  6  9 12 15 18 21 24 27 30 33 36 39 42 45 48 51 54 57 
 2  5  8 11 14 17 20 23 26 29 32 35 38 41 44 47 50 53 56 59 62  1  4  7 10 13 
22 25 28 31 34 37 40 43 46 49 52 55 58 61  0  3  6  9 12 15 18 21 24 27 30 33 
42 45 48 51 54 57 60 63  2  5  8 11 14 17 20 23 26 29 32 35 38 41 44 47 50 53 
62  1  4  7 10 13 16 19 22 25 28 31 34 37 40 43 46 49 52 55 58 61  0  3  6  9 
18 21 24 27 30 33 36 39 42 45 48 51 54 57 60 63  2  5  8 11 14 17 20 23 26 29 
38 41 44 47 50 53 56 59 62  1  4  7 10 13 16 19 22 25 28 31 34 37 40 43 46 49 
58 61  0  3  6  9 12 15 18 21 24 27 30 33 36 39 42 45 48 51 54 57 60 63  2  5 
14 17 20 23 26 29 32 35 38 41 44 47 50 53 56 59 62  1  4  7 10 13 16 19 22 25 
34 37 40 43 46 49 52 55 58 61  0  3  6  9 12 15 18 21 24 27 30 33 36 39 42 45 
54 57 60 63  2  5  8 11 14 17 20 23 26 29 32 35 38 41 44 47 50 53 56 59 62  1 
10 13 16 19 22 25 28 31 34 37 40 43 46 49 52 55 58 61  0  3  6  9 12 15 18 21 
30 33 36 39 42 45 48 51 54 57 60 63  2  5  8 11 14 17 20 23 26 29 32 35 38 41 
50 53 56 59 62  1  4  7 10 13 16 19 22 25 28 31 34 37 40 43 46 49 52 55 58 61 
 6  9 12 15 18 21 24 27 30 33 36 39 42 45 48 51 54 57 60 63  2  5  8 11 14 17 
26 29 32 35 38 41 44 47 50 53 56 59 62  1  4  7 10 13 16 19 22 25 28 31 34 37 
46 49 52 55 58 61  0  3  6  9 12 15 18 21 24 27 30 33 36 39 42 45 48 51 54 57 
 2  5  8 11 14 17 20 23 26 29 32 35 38 41 44 47 50 53 56 59 62  1  4  7 10 13 
22 25 28 31 34 37 40 43 46 49 52 55 58 61  0  3  6  9 12 15 18 21 24 27 30 33 
42 45 48 51 54 57 60 63  2  5  8 11 14 17 20 23 26 29 32 35 38 41 44 47 50 53 
62  1  4  7 10 13 16 19 22 25 28 31 34 37 40 43 46 49 52 55 58 61  0  3  6  9 
18 21 24 27 30 33 36 39 42 45 48 51 54 57 60 63  2  5  8 11 14 17 20 23 26 29 
38 41 44 47 50 53 56 59 62  1  4  7 10 13 16 19 22 25 28 31 34 37 40 43 46 49 
58 61  0  3  6  9 12 15 18 21 24 27 30 33 36 39 42 45 48 51 54 57 60 63  2  5 
14 17 20 23 26 29 32 35 38 41 44 47 50 53 56 59 62  1  4  7 10 13 16 19 22 25 